<?xml version="1.0" encoding="UTF-8"?>
<svg version="1.1" xmlns="http://www.w3.org/2000/svg" width="32" height="33">
<path d="M0 0 C4.26168837 -0.25068755 7.94015168 -0.37536295 12 1.0625 C14.85013463 3.82356793 14.85900052 6.12251435 15 10 C14.67 10.66 14.34 11.32 14 12 C14.89363605 14.60931266 14.89363605 14.60931266 16 17 C17.15922128 15.26857146 17.15922128 15.26857146 18 13 C17.6596875 11.7934375 17.6596875 11.7934375 17.3125 10.5625 C17 8 17 8 18.8125 5.25 C23.10874059 2.21735958 26.84612621 2.11008274 32 2 C32.56364659 12.75103676 32.56364659 12.75103676 29 17 C25.78548731 18.60725635 22.56387464 18.05748185 19 18 C18.01 21.63 17.02 25.26 16 29 C15.34 29 14.68 29 14 29 C13.86722656 28.15695313 13.73445312 27.31390625 13.59765625 26.4453125 C13.42105469 25.34960938 13.24445312 24.25390625 13.0625 23.125 C12.88847656 22.03445312 12.71445313 20.94390625 12.53515625 19.8203125 C12.14448841 17.06178454 12.14448841 17.06178454 11 15 C10.0925 15.061875 9.185 15.12375 8.25 15.1875 C4.67389735 14.98118639 3.49451413 14.49451413 1 12 C0.03929566 9.11788698 -0.10581883 7.30149956 -0.0625 4.3125 C-0.05347656 3.50425781 -0.04445312 2.69601563 -0.03515625 1.86328125 C-0.02355469 1.24839844 -0.01195312 0.63351563 0 0 Z " fill="#00B107" transform="translate(0,2)"/>
</svg>
